{
    "accessors" : [
        {
            "bufferView" : 0,
            "componentType" : 5126,
            "count" : 3282,
            "max" : [
                2.5149779319763184,
                6.174138069152832,
                3.2428274154663086
            ],
            "min" : [
                -2.29946231842041,
                -5.992576599121094,
                -2.9828708171844482
            ],
            "type" : "VEC3"
        },
        {
            "bufferView" : 1,
            "componentType" : 5126,
            "count" : 3282,
            "type" : "VEC3"
        },
        {
            "bufferView" : 2,
            "componentType" : 5123,
            "count" : 3282,
            "type" : "SCALAR"
        }
    ],
    "asset" : {
        "generator" : "Khronos Blender glTF 2.0 I/O",
        "version" : "2.0"
    },
    "bufferViews" : [
        {
            "buffer" : 0,
            "byteLength" : 39384,
            "byteOffset" : 0
        },
        {
            "buffer" : 0,
            "byteLength" : 39384,
            "byteOffset" : 39384
        },
        {
            "buffer" : 0,
            "byteLength" : 6564,
            "byteOffset" : 78768
        }
    ],
    "buffers" : [
        {
            "byteLength" : 85332,
            "uri" : "data:application/octet-stream;base64,"
        }
    ],
    "extensions" : {
        "KHR_lights_punctual" : {
            "lights" : [
                {
                    "color" : [
                        1,
                        0.710028886795044,
                        0.38774368166923523
                    ],
                    "intensity" : 8.489999771118164,
                    "name" : "Light",
                    "type" : "directional"
                },
                {
                    "color" : [
                        0.4506383240222931,
                        0.8874459266662598,
                        1
                    ],
                    "intensity" : 10,
                    "name" : "Sun",
                    "type" : "directional"
                }
            ]
        }
    },
    "extensionsRequired" : [
        "KHR_lights_punctual"
    ],
    "extensionsUsed" : [
        "KHR_lights_punctual"
    ],
    "materials" : [
        {
            "name" : "None",
            "pbrMetallicRoughness" : {
                "baseColorFactor" : [
                    0.7565712332725525,
                    0.8000000715255737,
                    0.7672958374023438,
                    1
                ],
                "metallicFactor" : 0.8047618865966797,
                "roughnessFactor" : 0.5238096117973328
            }
        }
    ],
    "meshes" : [
        {
            "name" : "albedo",
            "primitives" : [
                {
                    "attributes" : {
                        "NORMAL" : 1,
                        "POSITION" : 0
                    },
                    "indices" : 2,
                    "material" : 0
                }
            ]
        }
    ],
    "nodes" : [
        {
            "mesh" : 0,
            "name" : "albedo",
            "rotation" : [
                0.13060642778873444,
                0.16492600739002228,
                0.26543763279914856,
                0.9408954381942749
            ],
            "scale" : [
                0.5309792757034302,
                0.4833422899246216,
                0.4631621539592743
            ],
            "translation" : [
                0,
                4,
                0
            ]
        },
        {
            "extensions" : {
                "KHR_lights_punctual" : {
                    "light" : 0
                }
            },
            "name" : "Light_Orientation",
            "rotation" : [
                -0.7071067690849304,
                0,
                0,
                0.7071067690849304
            ]
        },
        {
            "children" : [
                1
            ],
            "extensions" : {},
            "name" : "Light",
            "rotation" : [
                0.11578443646430969,
                0.6605381965637207,
                0.27670687437057495,
                0.6882707476615906
            ],
            "translation" : [
                0.03570199012756348,
                5.903861999511719,
                3.584094524383545
            ]
        },
        {
            "extensions" : {
                "KHR_lights_punctual" : {
                    "light" : 1
                }
            },
            "name" : "Sun_Orientation",
            "rotation" : [
                -0.7071067690849304,
                0,
                0,
                0.7071067690849304
            ]
        },
        {
            "children" : [
                3
            ],
            "extensions" : {},
            "name" : "Sun",
            "rotation" : [
                -0.19293181598186493,
                0.13716638088226318,
                -0.9658718705177307,
                0.10513998568058014
            ],
            "translation" : [
                0.010064840316772461,
                -3.820796489715576,
                -3.77435564994812
            ]
        }
    ],
    "scene" : 0,
    "scenes" : [
        {
            "name" : "Scene",
            "nodes" : [
                0,
                2,
                4
            ]
        }
    ]
}
