{
    "accessors" : [
        {
            "bufferView" : 0,
            "componentType" : 5126,
            "count" : 3282,
            "max" : [
                2.1803224086761475,
                5.148033618927002,
                1.7422442436218262
            ],
            "min" : [
                -0.5803365707397461,
                -0.8688607215881348,
                -1.1110284328460693
            ],
            "type" : "VEC3"
        },
        {
            "bufferView" : 1,
            "componentType" : 5126,
            "count" : 3282,
            "type" : "VEC3"
        },
        {
            "bufferView" : 2,
            "componentType" : 5123,
            "count" : 3282,
            "type" : "SCALAR"
        }
    ],
    "asset" : {
        "generator" : "Khronos Blender glTF 2.0 I/O",
        "version" : "2.0"
    },
    "bufferViews" : [
        {
            "buffer" : 0,
            "byteLength" : 39384,
            "byteOffset" : 0
        },
        {
            "buffer" : 0,
            "byteLength" : 39384,
            "byteOffset" : 39384
        },
        {
            "buffer" : 0,
            "byteLength" : 6564,
            "byteOffset" : 78768
        }
    ],
    "buffers" : [
        {
            "byteLength" : 85332,
            "uri" : "data:application/octet-stream;base64,"
        }
    ],
    "extensions" : {
        "KHR_lights_punctual" : {
            "lights" : [
                {
                    "color" : [
                        0.8956220149993896,
                        1,
                        0.4073786735534668
                    ],
                    "intensity" : 50,
                    "name" : "Point",
                    "type" : "point"
                },
                {
                    "color" : [
                        1,
                        0.6169675588607788,
                        0.973307192325592
                    ],
                    "intensity" : 45,
                    "name" : "Point.001",
                    "type" : "point"
                },
                {
                    "color" : [
                        0.8956220149993896,
                        1,
                        0.4073786735534668
                    ],
                    "intensity" : 5,
                    "name" : "Point",
                    "type" : "directional"
                },
                {
                    "color" : [
                        1,
                        0.6169675588607788,
                        0.973307192325592
                    ],
                    "intensity" : 5,
                    "name" : "Point.001",
                    "type" : "directional"
                },
                {
                    "color" : [
                        0.8956220149993896,
                        1,
                        0.4073786735534668
                    ],
                    "intensity" : 4.029999732971191,
                    "name" : "Point",
                    "type" : "directional"
                },
                {
                    "color" : [
                        1,
                        1,
                        1
                    ],
                    "intensity" : 10,
                    "name" : "Sun.001",
                    "type" : "directional"
                },
                {
                    "color" : [
                        1,
                        1,
                        0.4000000059604645
                    ],
                    "intensity" : 2.0199997425079346,
                    "name" : "Point",
                    "type" : "directional"
                },
                {
                    "color" : [
                        1,
                        1,
                        0.4000000059604645
                    ],
                    "intensity" : 2,
                    "name" : "Sun.001",
                    "type" : "directional"
                },
                {
                    "color" : [
                        1,
                        1,
                        1
                    ],
                    "intensity" : 10,
                    "name" : "Sun.002",
                    "type" : "directional"
                },
                {
                    "color" : [
                        1,
                        1,
                        1
                    ],
                    "intensity" : 1,
                    "name" : "Point",
                    "type" : "directional"
                },
                {
                    "color" : [
                        1,
                        1,
                        1
                    ],
                    "intensity" : 4,
                    "name" : "Sun.001",
                    "type" : "directional"
                },
                {
                    "color" : [
                        1,
                        1,
                        1
                    ],
                    "intensity" : 3,
                    "name" : "Sun.002",
                    "type" : "directional"
                }
            ]
        }
    },
    "extensionsRequired" : [
        "KHR_lights_punctual"
    ],
    "extensionsUsed" : [
        "KHR_lights_punctual"
    ],
    "materials" : [
        {
            "name" : "None",
            "pbrMetallicRoughness" : {
                "baseColorFactor" : [
                    0.7565712332725525,
                    0.8000000715255737,
                    0.7672958374023438,
                    1
                ],
                "metallicFactor" : 0.8047618865966797,
                "roughnessFactor" : 0.5238096117973328
            }
        }
    ],
    "meshes" : [
        {
            "name" : "albedo",
            "primitives" : [
                {
                    "attributes" : {
                        "NORMAL" : 1,
                        "POSITION" : 0
                    },
                    "indices" : 2,
                    "material" : 0
                }
            ]
        }
    ],
    "nodes" : [
        {
            "mesh" : 0,
            "name" : "albedo"
        },
        {
            "extensions" : {
                "KHR_lights_punctual" : {
                    "light" : 9
                }
            },
            "name" : "Point_Orientation",
            "rotation" : [
                -0.7071067690849304,
                0,
                0,
                0.7071067690849304
            ]
        },
        {
            "children" : [
                1
            ],
            "extensions" : {},
            "name" : "Point",
            "rotation" : [
                -0.7781887054443359,
                -0.5351366400718689,
                0.3259601891040802,
                0.04243911802768707
            ],
            "translation" : [
                9.815122604370117,
                -2.5046958923339844,
                -4.944399833679199
            ]
        },
        {
            "extensions" : {
                "KHR_lights_punctual" : {
                    "light" : 10
                }
            },
            "name" : "Sun_Orientation",
            "rotation" : [
                -0.7071067690849304,
                0,
                0,
                0.7071067690849304
            ]
        },
        {
            "children" : [
                3
            ],
            "extensions" : {},
            "name" : "Sun",
            "rotation" : [
                0.4320603907108307,
                -0.1621260941028595,
                -0.1674475073814392,
                0.8712062239646912
            ],
            "translation" : [
                2.0571107864379883,
                12.108333587646484,
                13.807968139648438
            ]
        },
        {
            "extensions" : {
                "KHR_lights_punctual" : {
                    "light" : 11
                }
            },
            "name" : "Sun.001_Orientation",
            "rotation" : [
                -0.7071067690849304,
                0,
                0,
                0.7071067690849304
            ]
        },
        {
            "children" : [
                5
            ],
            "extensions" : {},
            "name" : "Sun.001",
            "rotation" : [
                0.06047511473298073,
                -0.04408160224556923,
                0.8761038780212402,
                0.4762791395187378
            ],
            "translation" : [
                -12.21826171875,
                -3.1889777183532715,
                0
            ]
        }
    ],
    "scene" : 0,
    "scenes" : [
        {
            "name" : "Scene",
            "nodes" : [
                0,
                2,
                4,
                6
            ]
        }
    ]
}
