{
    "accessors" : [
        {
            "bufferView" : 0,
            "componentType" : 5126,
            "count" : 486,
            "max" : [
                15.999996185302734,
                47.980831146240234,
                -0.4051268994808197
            ],
            "min" : [
                -16.000436782836914,
                -28.862201690673828,
                -53.525291442871094
            ],
            "type" : "VEC3"
        },
        {
            "bufferView" : 1,
            "componentType" : 5126,
            "count" : 486,
            "type" : "VEC3"
        },
        {
            "bufferView" : 2,
            "componentType" : 5123,
            "count" : 492,
            "type" : "SCALAR"
        },
        {
            "bufferView" : 3,
            "componentType" : 5126,
            "count" : 4,
            "max" : [
                1,
                0,
                1
            ],
            "min" : [
                -1,
                0,
                -1
            ],
            "type" : "VEC3"
        },
        {
            "bufferView" : 4,
            "componentType" : 5126,
            "count" : 4,
            "type" : "VEC3"
        },
        {
            "bufferView" : 5,
            "componentType" : 5126,
            "count" : 4,
            "type" : "VEC2"
        },
        {
            "bufferView" : 6,
            "componentType" : 5123,
            "count" : 6,
            "type" : "SCALAR"
        }
    ],
    "asset" : {
        "generator" : "Khronos Blender glTF 2.0 I/O",
        "version" : "2.0"
    },
    "bufferViews" : [
        {
            "buffer" : 0,
            "byteLength" : 5832,
            "byteOffset" : 0
        },
        {
            "buffer" : 0,
            "byteLength" : 5832,
            "byteOffset" : 5832
        },
        {
            "buffer" : 0,
            "byteLength" : 984,
            "byteOffset" : 11664
        },
        {
            "buffer" : 0,
            "byteLength" : 48,
            "byteOffset" : 12648
        },
        {
            "buffer" : 0,
            "byteLength" : 48,
            "byteOffset" : 12696
        },
        {
            "buffer" : 0,
            "byteLength" : 32,
            "byteOffset" : 12744
        },
        {
            "buffer" : 0,
            "byteLength" : 12,
            "byteOffset" : 12776
        }
    ],
    "buffers" : [
        {
            "byteLength" : 12788,
            "uri" : "data:application/octet-stream;base64,"
        }
    ],
    "extensions" : {
        "KHR_lights_punctual" : {
            "lights" : [
                {
                    "color" : [
                        1,
                        0.7843610644340515,
                        0.8641234040260315
                    ],
                    "intensity" : 8.800000190734863,
                    "name" : "Light",
                    "type" : "directional"
                },
                {
                    "color" : [
                        1,
                        1,
                        1
                    ],
                    "intensity" : 5.590000152587891,
                    "name" : "Light.001",
                    "type" : "directional"
                }
            ]
        }
    },
    "extensionsRequired" : [
        "KHR_lights_punctual"
    ],
    "extensionsUsed" : [
        "KHR_lights_punctual"
    ],
    "materials" : [
        {
            "name" : "palette",
            "pbrMetallicRoughness" : {
                "baseColorFactor" : [
                    0.7245849967002869,
                    0.6426170468330383,
                    0.361376017332077,
                    1
                ],
                "metallicFactor" : 0.7571428418159485,
                "roughnessFactor" : 0.7809523940086365
            }
        },
        {
            "name" : "Material.001",
            "pbrMetallicRoughness" : {}
        }
    ],
    "meshes" : [
        {
            "name" : "untitled",
            "primitives" : [
                {
                    "attributes" : {
                        "NORMAL" : 1,
                        "POSITION" : 0
                    },
                    "indices" : 2,
                    "material" : 0
                }
            ]
        },
        {
            "name" : "Plane",
            "primitives" : [
                {
                    "attributes" : {
                        "NORMAL" : 4,
                        "POSITION" : 3,
                        "TEXCOORD_0" : 5
                    },
                    "indices" : 6,
                    "material" : 1
                }
            ]
        }
    ],
    "nodes" : [
        {
            "extensions" : {
                "KHR_lights_punctual" : {
                    "light" : 0
                }
            },
            "name" : "Light_Orientation",
            "rotation" : [
                -0.7071067690849304,
                0,
                0,
                0.7071067690849304
            ]
        },
        {
            "children" : [
                0
            ],
            "extensions" : {},
            "name" : "Light",
            "rotation" : [
                0.5175012946128845,
                0.5890874266624451,
                -0.061327699571847916,
                0.6175819039344788
            ],
            "translation" : [
                4.076245307922363,
                6.664007663726807,
                5.1009345054626465
            ]
        },
        {
            "mesh" : 0,
            "name" : "untitled",
            "rotation" : [
                0.7071068286895752,
                0,
                0,
                0.7071068286895752
            ],
            "scale" : [
                0.08465011417865753,
                0.08465011417865753,
                0.08465011417865753
            ]
        },
        {
            "extensions" : {
                "KHR_lights_punctual" : {
                    "light" : 1
                }
            },
            "name" : "Light.001_Orientation",
            "rotation" : [
                -0.7071067690849304,
                0,
                0,
                0.7071067690849304
            ]
        },
        {
            "children" : [
                3
            ],
            "extensions" : {},
            "name" : "Light.001",
            "rotation" : [
                -0.5439009666442871,
                0.7371293902397156,
                0.11017023026943207,
                0.38558340072631836
            ],
            "translation" : [
                -5.676130294799805,
                5.903861999511719,
                -4.961126804351807
            ]
        },
        {
            "mesh" : 1,
            "name" : "Plane",
            "scale" : [
                5.29495906829834,
                5.29495906829834,
                5.29495906829834
            ]
        }
    ],
    "scene" : 0,
    "scenes" : [
        {
            "name" : "Scene",
            "nodes" : [
                1,
                2,
                4,
                5
            ]
        }
    ]
}
