{
    "accessors" : [
        {
            "bufferView" : 0,
            "componentType" : 5126,
            "count" : 588,
            "max" : [
                3.488063097000122,
                5.299149990081787,
                2.8520233631134033
            ],
            "min" : [
                -3.9337852001190186,
                -5.189409255981445,
                -2.4362001419067383
            ],
            "type" : "VEC3"
        },
        {
            "bufferView" : 1,
            "componentType" : 5126,
            "count" : 588,
            "type" : "VEC3"
        },
        {
            "bufferView" : 2,
            "componentType" : 5123,
            "count" : 588,
            "type" : "SCALAR"
        }
    ],
    "asset" : {
        "generator" : "Khronos Blender glTF 2.0 I/O",
        "version" : "2.0"
    },
    "bufferViews" : [
        {
            "buffer" : 0,
            "byteLength" : 7056,
            "byteOffset" : 0
        },
        {
            "buffer" : 0,
            "byteLength" : 7056,
            "byteOffset" : 7056
        },
        {
            "buffer" : 0,
            "byteLength" : 1176,
            "byteOffset" : 14112
        }
    ],
    "buffers" : [
        {
            "byteLength" : 15288,
            "uri" : "data:application/octet-stream;base64,"
        }
    ],
    "extensions" : {
        "KHR_lights_punctual" : {
            "lights" : [
                {
                    "color" : [
                        1,
                        0.710028886795044,
                        0.38774368166923523
                    ],
                    "intensity" : 8.489999771118164,
                    "name" : "Light",
                    "type" : "directional"
                },
                {
                    "color" : [
                        0.4506383240222931,
                        0.8874459266662598,
                        1
                    ],
                    "intensity" : 10,
                    "name" : "Sun",
                    "type" : "directional"
                }
            ]
        }
    },
    "extensionsRequired" : [
        "KHR_lights_punctual"
    ],
    "extensionsUsed" : [
        "KHR_lights_punctual"
    ],
    "materials" : [
        {
            "name" : "None.002",
            "pbrMetallicRoughness" : {
                "baseColorFactor" : [
                    0.8275034427642822,
                    0.49228131771087646,
                    0.20248852670192719,
                    1
                ],
                "metallicFactor" : 0.800000011920929,
                "roughnessFactor" : 0.4000000059604645
            }
        }
    ],
    "meshes" : [
        {
            "name" : "citrinitas",
            "primitives" : [
                {
                    "attributes" : {
                        "NORMAL" : 1,
                        "POSITION" : 0
                    },
                    "indices" : 2,
                    "material" : 0
                }
            ]
        }
    ],
    "nodes" : [
        {
            "mesh" : 0,
            "name" : "citrinitas",
            "rotation" : [
                0.1073097437620163,
                -0.9849684834480286,
                0.08743355423212051,
                0.10333050787448883
            ],
            "scale" : [
                0.5261421799659729,
                0.5261421799659729,
                0.5261422395706177
            ],
            "translation" : [
                0,
                4,
                0
            ]
        },
        {
            "extensions" : {
                "KHR_lights_punctual" : {
                    "light" : 0
                }
            },
            "name" : "Light_Orientation",
            "rotation" : [
                -0.7071067690849304,
                0,
                0,
                0.7071067690849304
            ]
        },
        {
            "children" : [
                1
            ],
            "extensions" : {},
            "name" : "Light",
            "rotation" : [
                0.11578443646430969,
                0.6605381965637207,
                0.27670687437057495,
                0.6882707476615906
            ],
            "translation" : [
                0.03570199012756348,
                5.903861999511719,
                3.584094524383545
            ]
        },
        {
            "extensions" : {
                "KHR_lights_punctual" : {
                    "light" : 1
                }
            },
            "name" : "Sun_Orientation",
            "rotation" : [
                -0.7071067690849304,
                0,
                0,
                0.7071067690849304
            ]
        },
        {
            "children" : [
                3
            ],
            "extensions" : {},
            "name" : "Sun",
            "rotation" : [
                -0.19293181598186493,
                0.13716638088226318,
                -0.9658718705177307,
                0.10513998568058014
            ],
            "translation" : [
                0.010064840316772461,
                -3.820796489715576,
                -3.77435564994812
            ]
        }
    ],
    "scene" : 0,
    "scenes" : [
        {
            "name" : "Scene",
            "nodes" : [
                0,
                2,
                4
            ]
        }
    ]
}
