{
    "accessors" : [
        {
            "bufferView" : 0,
            "componentType" : 5126,
            "count" : 588,
            "max" : [
                3.051459789276123,
                4.971676826477051,
                3.458000421524048
            ],
            "min" : [
                -4.370388507843018,
                -5.516882419586182,
                -1.8302229642868042
            ],
            "type" : "VEC3"
        },
        {
            "bufferView" : 1,
            "componentType" : 5126,
            "count" : 588,
            "type" : "VEC3"
        },
        {
            "bufferView" : 2,
            "componentType" : 5123,
            "count" : 588,
            "type" : "SCALAR"
        }
    ],
    "asset" : {
        "generator" : "Khronos Blender glTF 2.0 I/O",
        "version" : "2.0"
    },
    "bufferViews" : [
        {
            "buffer" : 0,
            "byteLength" : 7056,
            "byteOffset" : 0
        },
        {
            "buffer" : 0,
            "byteLength" : 7056,
            "byteOffset" : 7056
        },
        {
            "buffer" : 0,
            "byteLength" : 1176,
            "byteOffset" : 14112
        }
    ],
    "buffers" : [
        {
            "byteLength" : 15288,
            "uri" : "data:application/octet-stream;base64,"
        }
    ],
    "extensions" : {
        "KHR_lights_punctual" : {
            "lights" : [
                {
                    "color" : [
                        1,
                        1,
                        1
                    ],
                    "intensity" : 9.819999694824219,
                    "name" : "Light",
                    "spot" : {
                        "innerConeAngle" : 0.5201879286051643,
                        "outerConeAngle" : 0.6119858026504517
                    },
                    "type" : "spot"
                },
                {
                    "color" : [
                        1,
                        0.710028886795044,
                        0.38774368166923523
                    ],
                    "intensity" : 8.489999771118164,
                    "name" : "Light",
                    "type" : "directional"
                },
                {
                    "color" : [
                        0.4506383240222931,
                        0.8874459266662598,
                        1
                    ],
                    "intensity" : 10,
                    "name" : "Sun",
                    "type" : "directional"
                }
            ]
        }
    },
    "extensionsRequired" : [
        "KHR_lights_punctual"
    ],
    "extensionsUsed" : [
        "KHR_lights_punctual"
    ],
    "materials" : [
        {
            "name" : "None.002",
            "pbrMetallicRoughness" : {
                "baseColorFactor" : [
                    0.8275034427642822,
                    0.49228131771087646,
                    0.20248852670192719,
                    1
                ],
                "metallicFactor" : 0.800000011920929,
                "roughnessFactor" : 0.4000000059604645
            }
        }
    ],
    "meshes" : [
        {
            "name" : "citrinitas",
            "primitives" : [
                {
                    "attributes" : {
                        "NORMAL" : 1,
                        "POSITION" : 0
                    },
                    "indices" : 2,
                    "material" : 0
                }
            ]
        }
    ],
    "nodes" : [
        {
            "mesh" : 0,
            "name" : "citrinitas",
            "rotation" : [
                0.4188728332519531,
                -0.8580096960067749,
                -0.09413391351699829,
                0.2819640338420868
            ],
            "scale" : [
                0.5261422991752625,
                0.5261421799659729,
                0.5261423587799072
            ],
            "translation" : [
                0.5493922829627991,
                1.8107625246047974,
                -0.07340133190155029
            ]
        },
        {
            "extensions" : {
                "KHR_lights_punctual" : {
                    "light" : 1
                }
            },
            "name" : "Light_Orientation",
            "rotation" : [
                -0.7071067690849304,
                0,
                0,
                0.7071067690849304
            ]
        },
        {
            "children" : [
                1
            ],
            "extensions" : {},
            "name" : "Light",
            "rotation" : [
                0.11578443646430969,
                0.6605381965637207,
                0.27670687437057495,
                0.6882707476615906
            ],
            "translation" : [
                0.03570199012756348,
                5.903861999511719,
                3.584094524383545
            ]
        },
        {
            "extensions" : {
                "KHR_lights_punctual" : {
                    "light" : 2
                }
            },
            "name" : "Sun_Orientation",
            "rotation" : [
                -0.7071067690849304,
                0,
                0,
                0.7071067690849304
            ]
        },
        {
            "children" : [
                3
            ],
            "extensions" : {},
            "name" : "Sun",
            "rotation" : [
                -0.1769239753484726,
                -0.029703961685299873,
                -0.9779468178749084,
                0.1069369688630104
            ],
            "translation" : [
                2.648063898086548,
                -3.820796489715576,
                -3.77435564994812
            ]
        }
    ],
    "scene" : 0,
    "scenes" : [
        {
            "name" : "Scene",
            "nodes" : [
                0,
                2,
                4
            ]
        }
    ]
}
