{
    "accessors": [
        {
            "bufferView": 0,
            "byteOffset": 0,
            "componentType": 5126,
            "count": 1074,
            "max": [
                1.616182804107666,
                1.8918888568878174,
                2.5669078826904297
            ],
            "min": [
                -1.2811700105667114,
                -1.5819971561431885,
                -2.727299928665161
            ],
            "name": "accessor_buffer_Ico_Sphere.001_POSITION_0",
            "type": "VEC3"
        },
        {
            "bufferView": 1,
            "byteOffset": 0,
            "componentType": 5126,
            "count": 1074,
            "max": [
                0.9974555969238281,
                0.9995869398117065,
                0.9960059523582458
            ],
            "min": [
                -0.9991544485092163,
                -0.9998872876167297,
                -0.9964251518249512
            ],
            "name": "accessor_buffer_Ico_Sphere.001_NORMAL_0",
            "type": "VEC3"
        },
        {
            "bufferView": 2,
            "byteOffset": 0,
            "componentType": 5126,
            "count": 1074,
            "max": [
                1.0,
                1.0,
                1.0
            ],
            "min": [
                1.0,
                1.0,
                1.0
            ],
            "name": "accessor_buffer_Ico_Sphere.001_COLOR_0_0",
            "type": "VEC3"
        },
        {
            "bufferView": 3,
            "byteOffset": 0,
            "componentType": 5123,
            "count": 1074,
            "max": [
                1073
            ],
            "min": [
                0
            ],
            "name": "accessor_buffer_Ico_Sphere.001_0",
            "type": "SCALAR"
        },
        {
            "bufferView": 4,
            "byteOffset": 0,
            "componentType": 5126,
            "count": 73,
            "max": [
                2.999999999999998
            ],
            "min": [
                0
            ],
            "name": "accessor_buffer_Ico_Sphere.001_Ico_Sphere.001Action_time_0",
            "type": "SCALAR"
        }
    ],
    "animations": [
        {
            "channels": [],
            "name": "Ico_Sphere.001Action",
            "samplers": []
        }
    ],
    "asset": {
        "copyright": "",
        "generator": "blendergltf v1.2.0",
        "version": "2.0"
    },
    "bufferViews": [
        {
            "buffer": 0,
            "byteLength": 12888,
            "byteOffset": 0,
            "byteStride": 12,
            "name": "bufferView_buffer_Ico_Sphere.001_POSITION_0",
            "target": 34962
        },
        {
            "buffer": 0,
            "byteLength": 12888,
            "byteOffset": 12888,
            "byteStride": 12,
            "name": "bufferView_buffer_Ico_Sphere.001_NORMAL_0",
            "target": 34962
        },
        {
            "buffer": 0,
            "byteLength": 12888,
            "byteOffset": 25776,
            "byteStride": 12,
            "name": "bufferView_buffer_Ico_Sphere.001_COLOR_0_0",
            "target": 34962
        },
        {
            "buffer": 0,
            "byteLength": 2152,
            "byteOffset": 38664,
            "name": "bufferView_buffer_Ico_Sphere.001_0",
            "target": 34963
        },
        {
            "buffer": 0,
            "byteLength": 292,
            "byteOffset": 40816,
            "byteStride": 4,
            "name": "bufferView_buffer_Ico_Sphere.001_Ico_Sphere.001Action_time_0"
        }
    ],
    "buffers": [
        {
            "byteLength": 41108,
            "name": "buffer_foundations",
            "uri": "buffer_foundations.bin"
        }
    ],
    "cameras": [
        {
            "name": "Camera",
            "perspective": {
                "aspectRatio": 1.703595982340029,
                "yfov": 0.5033799409866333,
                "zfar": 100.0,
                "znear": 0.10000000149011612
            },
            "type": "perspective"
        }
    ],
    "materials": [
        {
            "alphaMode": "OPAQUE",
            "doubleSided": true,
            "emissiveFactor": [
                0.004999999888241291,
                0.004999999888241291,
                0.004999999888241291
            ],
            "name": "None",
            "pbrMetallicRoughness": {
                "baseColorFactor": [
                    0.7039840221405029,
                    0.7869182825088501,
                    0.7089295387268066,
                    0.6923057436943054
                ],
                "metallicFactor": 1.0,
                "roughnessFactor": 0.7000000476837158
            }
        }
    ],
    "meshes": [
        {
            "name": "Ico_Sphere.001",
            "primitives": [
                {
                    "attributes": {
                        "COLOR_0": 2,
                        "NORMAL": 1,
                        "POSITION": 0
                    },
                    "indices": 3,
                    "material": 0,
                    "mode": 4
                }
            ]
        }
    ],
    "nodes": [
        {
            "camera": 0,
            "name": "Camera",
            "rotation": [
                0.48948734998703003,
                -0.19433586299419403,
                -0.31368041038513184,
                0.7900888323783875
            ],
            "scale": [
                1.0,
                1.0,
                1.0
            ],
            "translation": [
                -6.5076398849487305,
                -7.481131553649902,
                7.634209156036377
            ]
        },
        {
            "mesh": 0,
            "name": "Ico_Sphere.001",
            "rotation": [
                0.0,
                0.0,
                -0.4226183295249939,
                0.9063077569007874
            ],
            "scale": [
                1.0,
                1.0,
                1.0
            ],
            "translation": [
                0.0,
                0.0,
                2.3713653087615967
            ]
        },
        {
            "name": "Lamp",
            "rotation": [
                0.3120088279247284,
                0.07289960980415344,
                0.13076721131801605,
                0.9382089972496033
            ],
            "scale": [
                0.9999999403953552,
                1.0,
                1.0
            ],
            "translation": [
                3.7887649536132812,
                -1.2636744976043701,
                2.9980976581573486
            ]
        }
    ],
    "scene": 0,
    "scenes": [
        {
            "extras": {
                "active_camera": 0,
                "background_color": [
                    0.05087608844041824,
                    0.05087608844041824,
                    0.05087608844041824
                ],
                "frames_per_second": 24
            },
            "name": "Scene",
            "nodes": [
                1,
                2,
                0
            ]
        }
    ]
}
