{
    "accessors": [
        {
            "bufferView": 0,
            "byteOffset": 0,
            "componentType": 5126,
            "count": 1074,
            "max": [
                1.8918888568878174,
                2.5669078826904297,
                1.616182804107666
            ],
            "min": [
                -1.5819971561431885,
                -2.727299928665161,
                -1.2811700105667114
            ],
            "name": "accessor_buffer_Ico_Sphere.001_0",
            "type": "VEC3"
        },
        {
            "bufferView": 0,
            "byteOffset": 12,
            "componentType": 5126,
            "count": 1074,
            "max": [
                0.9995869398117065,
                0.9960059523582458,
                0.9974555969238281
            ],
            "min": [
                -0.9998872876167297,
                -0.9964251518249512,
                -0.9991544485092163
            ],
            "name": "accessor_buffer_Ico_Sphere.001_1",
            "type": "VEC3"
        },
        {
            "bufferView": 0,
            "byteOffset": 24,
            "componentType": 5126,
            "count": 1074,
            "max": [
                1.0,
                1.0,
                1.0,
                1.0
            ],
            "min": [
                1.0,
                1.0,
                1.0,
                1.0
            ],
            "name": "accessor_buffer_Ico_Sphere.001_2",
            "type": "VEC4"
        },
        {
            "bufferView": 1,
            "byteOffset": 0,
            "componentType": 5123,
            "count": 1074,
            "max": [
                1073
            ],
            "min": [
                0
            ],
            "name": "accessor_buffer_Ico_Sphere.001_3",
            "type": "SCALAR"
        },
        {
            "bufferView": 2,
            "byteOffset": 0,
            "componentType": 5126,
            "count": 73,
            "max": [
                2.8800000000000017
            ],
            "min": [
                0
            ],
            "name": "accessor_buffer_Ico_Sphere.001_Ico_Sphere.001Action_time_0",
            "type": "SCALAR"
        }
    ],
    "animations": [
        {
            "channels": [],
            "name": "Ico_Sphere.001Action",
            "samplers": []
        }
    ],
    "asset": {
        "copyright": "",
        "generator": "blendergltf v1.2.0",
        "version": "2.0"
    },
    "bufferViews": [
        {
            "buffer": 0,
            "byteLength": 42960,
            "byteOffset": 0,
            "byteStride": 40,
            "name": "bufferView_buffer_Ico_Sphere.001_0",
            "target": 34962
        },
        {
            "buffer": 0,
            "byteLength": 2152,
            "byteOffset": 42960,
            "name": "bufferView_buffer_Ico_Sphere.001_1",
            "target": 34963
        },
        {
            "buffer": 0,
            "byteLength": 292,
            "byteOffset": 45112,
            "byteStride": 4,
            "name": "bufferView_buffer_Ico_Sphere.001_Ico_Sphere.001Action_time_0"
        }
    ],
    "buffers": [
        {
            "byteLength": 45404,
            "name": "buffer_foundations",
            "uri": "buffer_foundations.bin"
        }
    ],
    "cameras": [
        {
            "name": "Camera",
            "perspective": {
                "aspectRatio": 1.703595982340029,
                "yfov": 0.5033799409866333,
                "zfar": 100.0,
                "znear": 0.10000000149011612
            },
            "type": "perspective"
        }
    ],
    "materials": [
        {
            "alphaMode": "OPAQUE",
            "doubleSided": false,
            "emissiveFactor": [
                0.0,
                0.0,
                0.0
            ],
            "name": "Material.012",
            "pbrMetallicRoughness": {
                "baseColorFactor": [
                    0.64000004529953,
                    0.64000004529953,
                    0.64000004529953,
                    1.0
                ],
                "metallicFactor": 0.0,
                "roughnessFactor": 1.0
            }
        }
    ],
    "meshes": [
        {
            "name": "Ico_Sphere.001",
            "primitives": [
                {
                    "attributes": {
                        "COLOR_0": 2,
                        "NORMAL": 1,
                        "POSITION": 0
                    },
                    "indices": 3,
                    "material": 0,
                    "mode": 4
                }
            ]
        }
    ],
    "nodes": [
        {
            "camera": 0,
            "name": "Camera",
            "rotation": [
                -0.09062843769788742,
                -0.8937962651252747,
                -0.2099730223417282,
                0.38578000664711
            ],
            "scale": [
                1.0,
                1.0,
                1.0
            ],
            "translation": [
                -7.481131553649902,
                6.102785110473633,
                -6.5076398849487305
            ]
        },
        {
            "name": "Hemi",
            "rotation": [
                0.050399184226989746,
                0.7809706330299377,
                -0.1959380954504013,
                0.5908917784690857
            ],
            "scale": [
                1.0,
                0.9999999403953552,
                1.0
            ],
            "translation": [
                4.660928726196289,
                2.8350086212158203,
                -4.778569221496582
            ]
        },
        {
            "mesh": 0,
            "name": "Ico_Sphere.001",
            "rotation": [
                0.0,
                0.0,
                0.0,
                1.0
            ],
            "scale": [
                0.7701572775840759,
                0.7701573371887207,
                0.7701572775840759
            ],
            "translation": [
                0.0,
                0.5795408487319946,
                0.0
            ]
        },
        {
            "name": "Lamp",
            "rotation": [
                -0.34203386306762695,
                -0.5232755541801453,
                -0.2841663062572479,
                0.7269423007965088
            ],
            "scale": [
                1.0,
                1.0,
                0.9999999403953552
            ],
            "translation": [
                -1.2636744976043701,
                8.049129486083984,
                3.7887649536132812
            ]
        },
        {
            "name": "Sun",
            "rotation": [
                0.0,
                0.7071068286895752,
                0.7071068286895752,
                0.0
            ],
            "scale": [
                1.0,
                1.0,
                1.0
            ],
            "translation": [
                -2.9593148231506348,
                3.151089668273926,
                0.6162645816802979
            ]
        }
    ],
    "scene": 0,
    "scenes": [
        {
            "extras": {
                "active_camera": 0,
                "background_color": [
                    0.05087608844041824,
                    0.05087608844041824,
                    0.05087608844041824
                ],
                "frames_per_second": 25
            },
            "name": "Scene",
            "nodes": [
                4,
                1,
                2,
                3,
                0
            ]
        }
    ]
}
