{
    "accessors" : [
        {
            "bufferView" : 0,
            "componentType" : 5126,
            "count" : 610,
            "max" : [
                5.177628040313721,
                4.419661045074463,
                4.077054977416992
            ],
            "min" : [
                -2.9238550662994385,
                -4.402291774749756,
                -3.874459981918335
            ],
            "type" : "VEC3"
        },
        {
            "bufferView" : 1,
            "componentType" : 5126,
            "count" : 610,
            "type" : "VEC3"
        },
        {
            "bufferView" : 2,
            "componentType" : 5123,
            "count" : 1128,
            "type" : "SCALAR"
        }
    ],
    "asset" : {
        "generator" : "Khronos Blender glTF 2.0 I/O",
        "version" : "2.0"
    },
    "bufferViews" : [
        {
            "buffer" : 0,
            "byteLength" : 7320,
            "byteOffset" : 0
        },
        {
            "buffer" : 0,
            "byteLength" : 7320,
            "byteOffset" : 7320
        },
        {
            "buffer" : 0,
            "byteLength" : 2256,
            "byteOffset" : 14640
        }
    ],
    "buffers" : [
        {
            "byteLength" : 16896,
            "uri" : "data:application/octet-stream;base64,"
        }
    ],
    "extensions" : {
        "KHR_lights_punctual" : {
            "lights" : [
                {
                    "color" : [
                        1,
                        1,
                        1
                    ],
                    "intensity" : 9.819999694824219,
                    "name" : "Light",
                    "spot" : {
                        "innerConeAngle" : 0.5201879286051643,
                        "outerConeAngle" : 0.6119858026504517
                    },
                    "type" : "spot"
                },
                {
                    "color" : [
                        1,
                        0.710028886795044,
                        0.38774368166923523
                    ],
                    "intensity" : 8.489999771118164,
                    "name" : "Light",
                    "type" : "directional"
                },
                {
                    "color" : [
                        0.4506383240222931,
                        0.8874459266662598,
                        1
                    ],
                    "intensity" : 10,
                    "name" : "Sun",
                    "type" : "directional"
                }
            ]
        }
    },
    "extensionsRequired" : [
        "KHR_lights_punctual"
    ],
    "extensionsUsed" : [
        "KHR_lights_punctual"
    ],
    "materials" : [
        {
            "name" : "None.003",
            "pbrMetallicRoughness" : {
                "baseColorFactor" : [
                    0.048880431801080704,
                    0.047147296369075775,
                    0.06370867788791656,
                    1
                ],
                "metallicFactor" : 0.7999999523162842,
                "roughnessFactor" : 0.7095238566398621
            }
        }
    ],
    "meshes" : [
        {
            "name" : "nigredo",
            "primitives" : [
                {
                    "attributes" : {
                        "NORMAL" : 1,
                        "POSITION" : 0
                    },
                    "indices" : 2,
                    "material" : 0
                }
            ]
        }
    ],
    "nodes" : [
        {
            "mesh" : 0,
            "name" : "nigredo",
            "rotation" : [
                1,
                0,
                0,
                -1.3435885648505064e-07
            ],
            "scale" : [
                0.5283164978027344,
                0.5283165574073792,
                0.5283165574073792
            ],
            "translation" : [
                0.4036208987236023,
                1.9273645877838135,
                -0.4267781972885132
            ]
        },
        {
            "extensions" : {
                "KHR_lights_punctual" : {
                    "light" : 1
                }
            },
            "name" : "Light_Orientation",
            "rotation" : [
                -0.7071067690849304,
                0,
                0,
                0.7071067690849304
            ]
        },
        {
            "children" : [
                1
            ],
            "extensions" : {},
            "name" : "Light",
            "rotation" : [
                0.11578443646430969,
                0.6605381965637207,
                0.27670687437057495,
                0.6882707476615906
            ],
            "translation" : [
                0.03570199012756348,
                5.903861999511719,
                3.584094524383545
            ]
        },
        {
            "extensions" : {
                "KHR_lights_punctual" : {
                    "light" : 2
                }
            },
            "name" : "Sun_Orientation",
            "rotation" : [
                -0.7071067690849304,
                0,
                0,
                0.7071067690849304
            ]
        },
        {
            "children" : [
                3
            ],
            "extensions" : {},
            "name" : "Sun",
            "rotation" : [
                -0.1769239753484726,
                -0.029703961685299873,
                -0.9779468178749084,
                0.1069369688630104
            ],
            "translation" : [
                2.648063898086548,
                -3.820796489715576,
                -3.77435564994812
            ]
        }
    ],
    "scene" : 0,
    "scenes" : [
        {
            "name" : "Scene",
            "nodes" : [
                0,
                2,
                4
            ]
        }
    ]
}
