{
    "accessors" : [
        {
            "bufferView" : 0,
            "componentType" : 5126,
            "count" : 610,
            "max" : [
                5.177628040313721,
                3.874459981918335,
                4.419661045074463
            ],
            "min" : [
                -2.9238550662994385,
                -4.077054977416992,
                -4.402291774749756
            ],
            "type" : "VEC3"
        },
        {
            "bufferView" : 1,
            "componentType" : 5126,
            "count" : 610,
            "type" : "VEC3"
        },
        {
            "bufferView" : 2,
            "componentType" : 5123,
            "count" : 1128,
            "type" : "SCALAR"
        }
    ],
    "asset" : {
        "generator" : "Khronos Blender glTF 2.0 I/O",
        "version" : "2.0"
    },
    "bufferViews" : [
        {
            "buffer" : 0,
            "byteLength" : 7320,
            "byteOffset" : 0
        },
        {
            "buffer" : 0,
            "byteLength" : 7320,
            "byteOffset" : 7320
        },
        {
            "buffer" : 0,
            "byteLength" : 2256,
            "byteOffset" : 14640
        }
    ],
    "buffers" : [
        {
            "byteLength" : 16896,
            "uri" : "data:application/octet-stream;base64,"
        }
    ],
    "extensions" : {},
    "materials" : [
        {
            "name" : "None.003",
            "pbrMetallicRoughness" : {
                "baseColorFactor" : [
                    0.048880431801080704,
                    0.047147296369075775,
                    0.06370867788791656,
                    1
                ],
                "metallicFactor" : 0.7999999523162842,
                "roughnessFactor" : 0.7095238566398621
            }
        }
    ],
    "meshes" : [
        {
            "name" : "Ico_Sphere.002",
            "primitives" : [
                {
                    "attributes" : {
                        "NORMAL" : 1,
                        "POSITION" : 0
                    },
                    "indices" : 2,
                    "material" : 0
                }
            ]
        }
    ],
    "nodes" : [
        {
            "mesh" : 0,
            "name" : "Ico_Sphere.002",
            "rotation" : [
                0.7071068286895752,
                0,
                0,
                0.7071068286895752
            ],
            "scale" : [
                0.5283164978027344,
                0.5283164978027344,
                0.5283164978027344
            ],
            "translation" : [
                2.9735593795776367,
                0.88381028175354,
                -1.6035537719726562
            ]
        }
    ],
    "scene" : 0,
    "scenes" : [
        {
            "name" : "Scene",
            "nodes" : [
                0
            ]
        }
    ]
}
