{
    "accessors" : [
        {
            "bufferView" : 0,
            "componentType" : 5126,
            "count" : 3282,
            "max" : [
                2.4848954677581787,
                2.712646007537842,
                6.667867660522461
            ],
            "min" : [
                -2.32954478263855,
                -3.513052225112915,
                -5.498847484588623
            ],
            "type" : "VEC3"
        },
        {
            "bufferView" : 1,
            "componentType" : 5126,
            "count" : 3282,
            "type" : "VEC3"
        },
        {
            "bufferView" : 2,
            "componentType" : 5123,
            "count" : 3282,
            "type" : "SCALAR"
        },
        {
            "bufferView" : 3,
            "componentType" : 5126,
            "count" : 594,
            "max" : [
                1.5000042915344238,
                3.9087984561920166,
                2.4747021198272705
            ],
            "min" : [
                -1.3289636373519897,
                -4.804219722747803,
                -3.0551178455352783
            ],
            "type" : "VEC3"
        },
        {
            "bufferView" : 4,
            "componentType" : 5126,
            "count" : 594,
            "type" : "VEC3"
        },
        {
            "bufferView" : 5,
            "componentType" : 5123,
            "count" : 594,
            "type" : "SCALAR"
        },
        {
            "bufferView" : 6,
            "componentType" : 5126,
            "count" : 588,
            "max" : [
                3.051459789276123,
                1.8302229642868042,
                4.971676826477051
            ],
            "min" : [
                -4.370388507843018,
                -3.458000421524048,
                -5.516882419586182
            ],
            "type" : "VEC3"
        },
        {
            "bufferView" : 7,
            "componentType" : 5126,
            "count" : 588,
            "type" : "VEC3"
        },
        {
            "bufferView" : 8,
            "componentType" : 5123,
            "count" : 588,
            "type" : "SCALAR"
        }
    ],
    "asset" : {
        "generator" : "Khronos Blender glTF 2.0 I/O",
        "version" : "2.0"
    },
    "bufferViews" : [
        {
            "buffer" : 0,
            "byteLength" : 39384,
            "byteOffset" : 0
        },
        {
            "buffer" : 0,
            "byteLength" : 39384,
            "byteOffset" : 39384
        },
        {
            "buffer" : 0,
            "byteLength" : 6564,
            "byteOffset" : 78768
        },
        {
            "buffer" : 0,
            "byteLength" : 7128,
            "byteOffset" : 85332
        },
        {
            "buffer" : 0,
            "byteLength" : 7128,
            "byteOffset" : 92460
        },
        {
            "buffer" : 0,
            "byteLength" : 1188,
            "byteOffset" : 99588
        },
        {
            "buffer" : 0,
            "byteLength" : 7056,
            "byteOffset" : 100776
        },
        {
            "buffer" : 0,
            "byteLength" : 7056,
            "byteOffset" : 107832
        },
        {
            "buffer" : 0,
            "byteLength" : 1176,
            "byteOffset" : 114888
        }
    ],
    "buffers" : [
        {
            "byteLength" : 116064,
            "uri" : "data:application/octet-stream;base64,"
        }
    ],
    "extensions" : {},
    "materials" : [
        {
            "name" : "None",
            "pbrMetallicRoughness" : {
                "baseColorFactor" : [
                    0.7565712332725525,
                    0.8000000715255737,
                    0.7672958374023438,
                    1
                ],
                "metallicFactor" : 0.9047619104385376,
                "roughnessFactor" : 0.35238099098205566
            }
        },
        {
            "name" : "None.001",
            "pbrMetallicRoughness" : {
                "baseColorFactor" : [
                    0.2920767664909363,
                    0.2853364646434784,
                    0.236286461353302,
                    1
                ],
                "metallicFactor" : 0.8999999761581421,
                "roughnessFactor" : 0.3619047999382019
            }
        },
        {
            "name" : "None.002",
            "pbrMetallicRoughness" : {
                "baseColorFactor" : [
                    0.8662176728248596,
                    0.0991019606590271,
                    0.0991019606590271,
                    1
                ],
                "metallicFactor" : 0.800000011920929,
                "roughnessFactor" : 0.46190476417541504
            }
        }
    ],
    "meshes" : [
        {
            "name" : "Ico_Sphere.001",
            "primitives" : [
                {
                    "attributes" : {
                        "NORMAL" : 1,
                        "POSITION" : 0
                    },
                    "indices" : 2,
                    "material" : 0
                }
            ]
        },
        {
            "name" : "Ico_Sphere.000",
            "primitives" : [
                {
                    "attributes" : {
                        "NORMAL" : 4,
                        "POSITION" : 3
                    },
                    "indices" : 5,
                    "material" : 1
                }
            ]
        },
        {
            "name" : "Head.001",
            "primitives" : [
                {
                    "attributes" : {
                        "NORMAL" : 7,
                        "POSITION" : 6
                    },
                    "indices" : 8,
                    "material" : 2
                }
            ]
        }
    ],
    "nodes" : [
        {
            "mesh" : 0,
            "name" : "Ico_Sphere.001",
            "rotation" : [
                0.6996222734451294,
                0.059719018638134,
                0.07426856458187103,
                0.7081288695335388
            ],
            "scale" : [
                0.463125079870224,
                0.4631250202655792,
                0.4631250500679016
            ],
            "translation" : [
                0.5967314839363098,
                1.8672583103179932,
                1.2660481929779053
            ]
        },
        {
            "mesh" : 1,
            "name" : "Ico_Sphere.000",
            "rotation" : [
                0.9537374973297119,
                0.05393906682729721,
                -0.278941810131073,
                0.09832067787647247
            ],
            "scale" : [
                0.6475149989128113,
                0.6475151181221008,
                0.6475149989128113
            ],
            "translation" : [
                0.5986049175262451,
                1.9479540586471558,
                -3.1311259269714355
            ]
        },
        {
            "mesh" : 2,
            "name" : "Head.001",
            "rotation" : [
                -0.19726891815662384,
                -0.7243053913116455,
                -0.6576660871505737,
                0.06278610229492188
            ],
            "scale" : [
                0.5261420011520386,
                0.5261420607566833,
                0.5261420607566833
            ],
            "translation" : [
                -2.1417794227600098,
                1.8107624053955078,
                0
            ]
        }
    ],
    "scene" : 0,
    "scenes" : [
        {
            "name" : "Scene",
            "nodes" : [
                0,
                1,
                2
            ]
        }
    ]
}
