{
    "accessors": [
        {
            "bufferView": 0,
            "byteOffset": 0,
            "componentType": 5126,
            "count": 408,
            "max": [
                2.3823649883270264,
                2.7496042251586914,
                5.618032932281494
            ],
            "min": [
                -2.465336322784424,
                -3.6278014183044434,
                -6.7729010581970215
            ],
            "name": "accessor_buffer_Ico_Sphere.001_POSITION_0",
            "type": "VEC3"
        },
        {
            "bufferView": 1,
            "byteOffset": 0,
            "componentType": 5126,
            "count": 408,
            "max": [
                0.9983118176460266,
                0.9977442026138306,
                0.9876855611801147
            ],
            "min": [
                -0.9947153329849243,
                -0.9954079985618591,
                -0.9821957945823669
            ],
            "name": "accessor_buffer_Ico_Sphere.001_NORMAL_0",
            "type": "VEC3"
        },
        {
            "bufferView": 2,
            "byteOffset": 0,
            "componentType": 5123,
            "count": 468,
            "max": [
                407
            ],
            "min": [
                0
            ],
            "name": "accessor_buffer_Ico_Sphere.001_0",
            "type": "SCALAR"
        },
        {
            "bufferView": 3,
            "byteOffset": 0,
            "componentType": 5126,
            "count": 50,
            "max": [
                2.041666666666668
            ],
            "min": [
                0
            ],
            "name": "accessor_buffer_Ico_Sphere.001_Ico_Sphere.001Action_time_0",
            "type": "SCALAR"
        },
        {
            "bufferView": 4,
            "byteOffset": 0,
            "componentType": 5126,
            "count": 50,
            "max": [
                0.1469832956790924,
                0.4414030909538269,
                0.0
            ],
            "min": [
                0.1469832956790924,
                0.4414030909538269,
                0.0
            ],
            "name": "accessor_buffer_Ico_Sphere.001_Ico_Sphere.001_Ico_Sphere.001Action_0",
            "type": "VEC3"
        },
        {
            "bufferView": 5,
            "byteOffset": 0,
            "componentType": 5126,
            "count": 50,
            "max": [
                0.13879279792308807,
                0.9903184175491333,
                0.13874517381191254,
                0.9898854494094849
            ],
            "min": [
                -0.1363707333803177,
                -0.9881319403648376,
                -0.017035581171512604,
                -0.0023695959243923426
            ],
            "name": "accessor_buffer_Ico_Sphere.001_Ico_Sphere.001_Ico_Sphere.001Action_1",
            "type": "VEC4"
        },
        {
            "bufferView": 6,
            "byteOffset": 0,
            "componentType": 5126,
            "count": 50,
            "max": [
                0.4614103138446808,
                0.4614103138446808,
                0.4614102840423584
            ],
            "min": [
                0.461410254240036,
                0.461410254240036,
                0.4614102840423584
            ],
            "name": "accessor_buffer_Ico_Sphere.001_Ico_Sphere.001_Ico_Sphere.001Action_2",
            "type": "VEC3"
        }
    ],
    "animations": [
        {
            "channels": [
                {
                    "sampler": 0,
                    "target": {
                        "node": 2,
                        "path": "translation"
                    }
                },
                {
                    "sampler": 1,
                    "target": {
                        "node": 2,
                        "path": "rotation"
                    }
                },
                {
                    "sampler": 2,
                    "target": {
                        "node": 2,
                        "path": "scale"
                    }
                }
            ],
            "name": "Ico_Sphere.001Action",
            "samplers": [
                {
                    "input": 3,
                    "interpolation": "LINEAR",
                    "output": 4
                },
                {
                    "input": 3,
                    "interpolation": "LINEAR",
                    "output": 5
                },
                {
                    "input": 3,
                    "interpolation": "LINEAR",
                    "output": 6
                }
            ]
        }
    ],
    "asset": {
        "copyright": "",
        "generator": "blendergltf v1.2.0",
        "version": "2.0"
    },
    "bufferViews": [
        {
            "buffer": 0,
            "byteLength": 4896,
            "byteOffset": 0,
            "byteStride": 12,
            "name": "bufferView_buffer_Ico_Sphere.001_POSITION_0",
            "target": 34962
        },
        {
            "buffer": 0,
            "byteLength": 4896,
            "byteOffset": 4896,
            "byteStride": 12,
            "name": "bufferView_buffer_Ico_Sphere.001_NORMAL_0",
            "target": 34962
        },
        {
            "buffer": 0,
            "byteLength": 940,
            "byteOffset": 9792,
            "name": "bufferView_buffer_Ico_Sphere.001_0",
            "target": 34963
        },
        {
            "buffer": 0,
            "byteLength": 200,
            "byteOffset": 10732,
            "byteStride": 4,
            "name": "bufferView_buffer_Ico_Sphere.001_Ico_Sphere.001Action_time_0"
        },
        {
            "buffer": 0,
            "byteLength": 600,
            "byteOffset": 10932,
            "byteStride": 12,
            "name": "bufferView_buffer_Ico_Sphere.001_Ico_Sphere.001_Ico_Sphere.001Action_0"
        },
        {
            "buffer": 0,
            "byteLength": 800,
            "byteOffset": 11532,
            "byteStride": 16,
            "name": "bufferView_buffer_Ico_Sphere.001_Ico_Sphere.001_Ico_Sphere.001Action_1"
        },
        {
            "buffer": 0,
            "byteLength": 600,
            "byteOffset": 12332,
            "byteStride": 12,
            "name": "bufferView_buffer_Ico_Sphere.001_Ico_Sphere.001_Ico_Sphere.001Action_2"
        }
    ],
    "buffers": [
        {
            "byteLength": 12932,
            "name": "buffer_pedra",
            "uri": "buffer_pedra.bin"
        }
    ],
    "cameras": [
        {
            "name": "Camera",
            "perspective": {
                "aspectRatio": 1.703595982340029,
                "yfov": 0.5033799409866333,
                "zfar": 100.0,
                "znear": 0.10000000149011612
            },
            "type": "perspective"
        }
    ],
    "materials": [
        {
            "alphaMode": "OPAQUE",
            "doubleSided": false,
            "emissiveFactor": [
                0.0,
                0.0,
                0.0
            ],
            "name": "None",
            "pbrMetallicRoughness": {
                "baseColorFactor": [
                    0.800000011920929,
                    0.800000011920929,
                    0.800000011920929,
                    1.0
                ],
                "metallicFactor": 0.0,
                "roughnessFactor": 1.0
            }
        }
    ],
    "meshes": [
        {
            "name": "Ico_Sphere.001",
            "primitives": [
                {
                    "attributes": {
                        "NORMAL": 1,
                        "POSITION": 0
                    },
                    "indices": 2,
                    "material": 0,
                    "mode": 4
                }
            ]
        }
    ],
    "nodes": [
        {
            "camera": 0,
            "name": "Camera",
            "rotation": [
                -0.09062843769788742,
                -0.8937962651252747,
                -0.2099730223417282,
                0.38578000664711
            ],
            "scale": [
                1.0,
                1.0,
                1.0
            ],
            "translation": [
                -7.481131553649902,
                5.34366512298584,
                -6.5076398849487305
            ]
        },
        {
            "name": "Empty",
            "rotation": [
                0.0,
                0.7071068286895752,
                0.7071068286895752,
                0.0
            ],
            "scale": [
                1.0,
                1.0,
                1.0
            ],
            "translation": [
                2.7373828887939453,
                2.8492393493652344,
                4.180283069610596
            ]
        },
        {
            "mesh": 0,
            "name": "Ico_Sphere.001",
            "rotation": [
                -0.2518281638622284,
                -0.6489133834838867,
                -0.7157486081123352,
                0.05655013024806976
            ],
            "scale": [
                0.4614102840423584,
                0.4614102840423584,
                0.4614102840423584
            ],
            "translation": [
                0.1469832956790924,
                0.4414030909538269,
                0.0
            ]
        },
        {
            "name": "Lamp",
            "rotation": [
                -0.34203386306762695,
                -0.5232755541801453,
                -0.2841663062572479,
                0.7269423007965088
            ],
            "scale": [
                1.0,
                1.0,
                0.9999999403953552
            ],
            "translation": [
                -1.1311672925949097,
                4.1104736328125,
                -3.171278476715088
            ]
        }
    ],
    "scene": 0,
    "scenes": [
        {
            "extras": {
                "active_camera": 0,
                "background_color": [
                    0.05087608844041824,
                    0.05087608844041824,
                    0.05087608844041824
                ],
                "frames_per_second": 24
            },
            "name": "Scene",
            "nodes": [
                1,
                2,
                3,
                0
            ]
        }
    ]
}
