# Blender v2.79 (sub 0) OBJ File: ''
# www.blender.org
mtllib pedraNV.mtl
o Ico_Sphere.001
v -0.182485 -0.191138 -0.051728
v -0.142232 0.027439 -0.145993
v -0.133462 -0.300805 -0.064746
v -0.003202 0.428984 -0.216339
v -0.071292 0.315851 -0.223414
v -0.048308 0.528369 -0.203284
v 0.117069 -0.465481 0.205998
v 0.140486 -0.361753 0.248713
v 0.070521 -0.472449 0.234430
v -0.030757 -0.391132 -0.098581
v 0.004083 -0.197610 -0.190281
v 0.032476 -0.362255 -0.098123
v -0.016560 0.519944 0.035743
v 0.031173 0.577702 -0.010467
v -0.043919 0.573734 -0.060610
v 0.025084 -0.207709 0.262308
v -0.008638 -0.421448 0.179500
v 0.038694 -0.284803 0.262748
v 0.255906 0.049651 0.117727
v 0.200304 -0.126578 0.038159
v 0.222881 0.207518 0.022714
v -0.018590 -0.506026 0.039797
v -0.012970 -0.505169 0.107701
v -0.068949 -0.474525 0.040241
v 0.146961 0.521521 0.032732
v 0.113539 0.533307 0.053272
v 0.146394 0.486613 0.094265
v 0.175796 -0.362444 0.148304
v 0.112377 -0.481105 0.125892
v 0.167854 -0.375094 0.092144
v -0.009057 -0.445785 -0.065121
v -0.118059 -0.405477 -0.000357
v -0.128015 -0.339410 0.042973
v 0.216046 0.365842 0.080018
v 0.251387 0.246130 0.073326
v 0.136888 0.541178 -0.025682
v 0.091147 0.573290 -0.027251
v 0.058299 -0.509506 0.194861
v 0.052155 0.285690 0.207176
v -0.032174 0.149546 0.186392
v 0.036557 -0.019907 0.268497
v 0.069098 0.514113 -0.114260
v 0.095590 0.441875 0.139873
v -0.056638 -0.452676 -0.032480
v 0.043992 0.488819 0.098000
v -0.172808 0.346599 -0.152034
v -0.138873 0.459648 -0.147226
v -0.102247 0.478112 -0.188459
v -0.058452 0.565089 -0.147282
v -0.008100 0.569247 -0.166080
v -0.009274 0.225995 -0.258160
v 0.044883 -0.509392 0.066756
v 0.096698 -0.406453 0.004944
v 0.000194 -0.479503 -0.014790
v -0.055163 0.089019 -0.230732
v 0.029270 0.032074 -0.240609
v 0.017878 0.595913 -0.084039
v 0.129247 0.252186 0.226331
v -0.198345 -0.061547 -0.051111
v -0.031538 0.407054 0.117273
v -0.080768 0.439145 0.016974
v 0.182031 0.372371 0.152169
v 0.023812 0.210534 -0.248390
v -0.114824 0.509026 -0.104203
v 0.109374 -0.157865 -0.106703
v -0.215290 0.013240 -0.081388
v 0.161428 -0.143064 0.279467
v 0.179001 0.039333 0.256923
v 0.134670 0.049623 0.286559
v -0.086359 0.308344 0.091224
v -0.144653 0.275384 -0.023930
v -0.073806 -0.450523 0.079713
v 0.097628 0.184401 -0.166878
v 0.007312 0.597317 -0.133088
v 0.210669 0.216324 0.188597
v 0.224707 0.018714 0.218294
v 0.190932 -0.186399 0.245127
v 0.227914 -0.205995 0.175889
v 0.179205 0.459259 -0.015102
v 0.160373 -0.391060 0.221133
vn 0.7835 -0.2205 0.5810
vn 0.5408 0.6186 0.5699
vn 0.5854 -0.2601 0.7679
vn -0.4018 -0.4047 0.8215
vn 0.2467 -0.5476 0.7995
vn 0.2535 0.4627 0.8495
vn -0.6528 0.6412 -0.4033
vn -0.1959 0.7516 -0.6298
vn -0.6066 -0.0549 -0.7931
vn 0.1870 0.8451 0.5009
vn -0.4747 0.8018 0.3631
vn -0.1741 -0.2107 0.9619
vn 0.4106 -0.4566 -0.7893
vn 0.5997 -0.7480 -0.2843
vn 0.1047 -0.8155 -0.5691
vn 0.5828 -0.5578 -0.5909
vn 0.2843 -0.3480 -0.8933
vn 0.6470 0.7306 -0.2180
vn -0.9708 -0.1546 0.1834
vn -0.7363 -0.3529 0.5773
vn -0.7752 0.4588 0.4343
vn 0.0455 0.9738 0.2228
vn 0.9122 0.4096 -0.0143
vn 0.2954 0.7531 -0.5879
vn -0.7737 -0.6281 -0.0827
vn -0.6562 -0.3849 -0.6491
vn -0.1165 -0.8186 -0.5625
vn -0.9940 0.0194 -0.1075
vn -0.8500 0.1781 0.4958
vn -0.5359 0.8442 0.0122
vn -0.1684 0.8505 0.4982
vn -0.5376 0.0204 0.8430
vn 0.3388 0.3654 0.8670
vn 0.5673 0.8220 -0.0494
vn 0.9316 -0.3345 0.1422
vn 0.5825 0.5222 -0.6229
vn -0.4055 0.1282 0.9051
vn -0.8413 0.2315 0.4885
vn -0.5836 -0.7412 0.3316
vn -0.7198 -0.6000 0.3492
vn -0.6658 -0.4453 -0.5987
vn -0.0645 -0.9907 -0.1195
vn 0.8562 -0.2120 -0.4712
vn 0.1694 0.7213 -0.6716
vn 0.9087 0.4165 0.0295
vn 0.3229 -0.5295 -0.7845
vn 0.3713 0.2427 -0.8962
vn 0.7530 -0.0636 -0.6549
vn -0.8832 -0.3915 0.2581
vn -0.4177 -0.8985 0.1354
vn -0.1073 -0.4172 0.9025
vn 0.1045 -0.3348 -0.9365
vn 0.1452 -0.8967 -0.4181
vn -0.3391 -0.8241 -0.4537
vn 0.4946 0.7705 0.4022
vn 0.2329 0.4243 0.8750
vn 0.8503 0.0988 0.5169
vn -0.0724 -0.1385 -0.9877
vn 0.3661 0.0810 -0.9270
vn 0.4433 -0.7821 -0.4379
vn 0.8618 0.2558 0.4381
vn 0.4113 -0.6184 0.6697
vn 0.8278 -0.5433 0.1398
vn -0.9527 -0.2789 0.1211
vn -0.6558 -0.2944 0.6952
vn -0.8838 0.3692 0.2873
vn 0.6202 -0.3529 0.7006
vn 0.5395 -0.7963 0.2735
vn 0.9350 -0.2813 0.2158
vn -0.5560 0.2126 0.8035
vn -0.5790 -0.6269 0.5213
vn -0.0670 -0.4782 0.8757
vn 0.5834 0.2873 0.7597
vn 0.2022 0.4684 0.8601
vn -0.0553 -0.7489 0.6604
vn -0.8190 0.5412 0.1908
vn -0.6612 0.2438 0.7095
vn -0.4428 0.8560 0.2667
vn 0.0102 0.7782 0.6280
vn 0.0735 0.9832 0.1673
vn -0.3348 0.9060 0.2588
vn -0.5381 0.8319 0.1353
vn -0.8028 0.0199 0.5959
vn -0.3648 0.3639 0.8570
vn 0.2222 0.7130 0.6650
vn 0.7465 0.0143 0.6652
vn 0.9420 0.1959 0.2725
vn 0.4403 -0.0098 0.8978
vn 0.1538 0.7074 0.6899
vn 0.0489 -0.0940 0.9944
vn -0.6137 0.7887 0.0376
vn -0.9842 0.1745 0.0285
vn -0.4451 0.3839 0.8090
vn 0.0558 0.4054 0.9124
vn 0.1163 -0.4001 0.9091
vn 0.3751 0.3738 0.8483
vn -0.6463 0.7188 -0.2561
vn -0.6006 0.7975 -0.0582
vn -0.5321 0.8323 -0.1552
vn 0.1328 -0.8649 -0.4841
vn 0.4913 -0.8515 -0.1831
vn 0.1973 -0.9781 -0.0663
vn 0.0638 -0.4787 -0.8757
vn 0.6218 -0.4786 -0.6199
vn 0.1882 -0.9325 -0.3082
vn -0.3099 -0.0296 -0.9503
vn 0.5475 -0.5147 -0.6598
vn -0.0770 -0.8110 -0.5800
vn 0.9349 -0.3263 0.1397
vn 0.9147 -0.2704 -0.3004
vn 0.6885 0.5085 -0.5171
vn 0.4875 -0.0896 -0.8685
vn 0.9737 -0.2250 0.0349
vn 0.4203 -0.8680 -0.2645
vn -0.5322 -0.8011 -0.2739
vn -0.6090 -0.7927 -0.0265
vn -0.9967 -0.0212 -0.0790
vn -0.8470 -0.0313 -0.5306
vn -0.2742 0.6276 0.7286
vn -0.6488 -0.2476 0.7196
vn 0.1121 -0.4657 0.8778
vn 0.4975 -0.8131 -0.3022
vn 0.8925 -0.4098 -0.1885
vn 0.4533 -0.8824 0.1258
vn -0.7890 -0.2148 0.5757
vn -0.0665 0.4945 0.8666
vn -0.7998 0.5940 -0.0869
vn -0.0928 0.6799 0.7274
vn 0.5882 0.7511 0.2998
vn -0.0788 0.9478 0.3090
vn -0.3498 -0.8468 0.4008
vn -0.7294 -0.1887 0.6575
vn -0.7705 -0.6164 0.1624
vn 0.5544 0.6578 0.5099
vn 0.2901 -0.0784 0.9538
vn 0.7448 0.0202 0.6670
vn -0.4555 0.4294 -0.7799
vn -0.1179 -0.4152 -0.9021
vn -0.6051 -0.3154 -0.7310
vn 0.7735 0.1867 -0.6057
vn 0.9909 0.0728 -0.1136
vn 0.5758 -0.2881 -0.7651
vn 0.9654 -0.0050 -0.2607
vn 0.6678 -0.4183 -0.6157
vn 0.7573 0.3430 -0.5557
vn -0.3932 0.5227 0.7564
vn -0.9781 0.0864 -0.1891
vn -0.8122 -0.4868 0.3215
vn -0.5570 0.2569 0.7897
vn 0.9730 -0.0893 0.2130
vn 0.7187 -0.6952 -0.0069
vn 0.6782 0.0380 -0.7339
vn 0.2269 0.0653 -0.9717
vn 0.1181 0.8638 -0.4899
vn 0.9849 0.1714 -0.0243
vn -0.7932 -0.1885 0.5791
vn -0.5037 -0.1108 0.8568
vn -0.7537 0.4732 0.4561
vn -0.7290 -0.6038 -0.3225
vn -0.4266 -0.8567 0.2900
vn -0.9851 -0.0929 0.1445
vn -0.6349 0.5565 -0.5360
vn -0.2866 0.8657 -0.4104
vn -0.2154 0.6224 -0.7525
vn 0.0064 -0.8751 0.4838
vn 0.3507 -0.8432 0.4073
vn 0.3473 -0.5619 0.7508
vn 0.9364 0.2382 0.2576
vn 0.6066 -0.5722 -0.5519
vn 0.7520 0.3600 -0.5522
vn 0.5954 0.3541 -0.7212
vn 0.0227 -0.2979 -0.9543
vn -0.0820 -0.4539 -0.8873
vn -0.3982 0.4130 -0.8191
vn 0.0404 0.6042 -0.7958
vn 0.1839 0.5989 -0.7795
vn 0.4375 -0.8427 -0.3137
vn -0.1209 -0.4196 -0.8996
vn 0.1005 -0.0143 -0.9948
vn 0.7278 -0.5801 -0.3658
vn 0.9166 -0.3950 -0.0613
vn 0.7715 0.4063 -0.4896
vn 0.6757 0.6985 -0.2355
vn 0.0498 -0.9257 0.3750
vn 0.4937 -0.6894 0.5301
vn 0.2116 -0.6284 0.7486
vn -0.8392 -0.4645 0.2829
vn -0.6122 0.7907 0.0082
vn -0.6896 0.5779 -0.4365
vn 0.4668 0.0552 -0.8826
vn 0.3408 0.4780 -0.8096
vn 0.9955 -0.0024 0.0942
vn 0.9804 0.0414 -0.1926
vn 0.8703 -0.1149 -0.4789
vn 0.4208 0.1351 -0.8970
vn -0.9609 0.1756 -0.2143
vn -0.8847 0.0249 -0.4655
vn -0.8578 -0.0693 -0.5093
vn -0.8518 -0.5204 -0.0603
vn -0.8613 -0.5075 -0.0262
vn -0.2984 -0.5562 -0.7756
vn -0.0979 -0.3494 -0.9319
vn 0.2843 -0.8682 -0.4067
vn 0.3322 -0.8520 -0.4046
vn -0.2145 -0.0662 0.9745
vn -0.5907 0.7748 0.2251
vn -0.7936 0.5605 0.2369
vn -0.5804 -0.0570 0.8123
vn -0.7381 0.6447 0.1988
vn -0.7007 0.6812 -0.2120
vn -0.9984 0.0553 0.0087
vn -0.5650 -0.3600 -0.7425
vn -0.8845 -0.4612 0.0703
vn -0.8533 0.2387 -0.4635
vn -0.8725 -0.2597 0.4139
vn -0.7021 -0.3798 0.6023
vn -0.6389 0.1623 0.7519
vn -0.9471 0.0723 0.3126
vn 0.2064 0.9483 0.2410
vn 0.0814 0.9044 -0.4189
vn -0.1751 0.9737 0.1455
vn 0.5429 0.7897 0.2856
vn 0.9546 0.0522 -0.2931
vn 0.1712 0.7628 -0.6236
vn 0.4529 -0.8807 0.1384
vn 0.2041 -0.9766 0.0680
vn 0.4304 -0.8631 -0.2642
vn 0.3647 -0.9278 -0.0789
vn 0.4194 -0.8751 -0.2414
vn 0.5124 -0.8548 -0.0823
vn -0.7942 0.3379 -0.5051
vn -0.5628 0.5519 -0.6153
vn -0.7268 -0.3241 -0.6055
vn 0.4407 -0.0828 -0.8938
vn 0.5831 0.4326 -0.6876
vn 0.7306 -0.5457 -0.4104
vn -0.6724 0.3990 0.6234
vn -0.9755 0.1130 0.1886
vn -0.4104 -0.5631 0.7172
vn 0.3609 0.4708 0.8051
vn 0.8650 0.1216 0.4869
vn 0.6174 0.7277 -0.2988
vn 0.5674 0.3026 -0.7658
vn 0.3678 0.9173 -0.1525
vn 0.9647 0.0142 0.2629
vn -0.3725 -0.8451 -0.3835
vn -0.0167 -0.8834 -0.4683
vn 0.0950 -0.9948 -0.0353
vn 0.9548 -0.1315 0.2665
vn 0.6234 0.7745 0.1073
vn 0.5434 0.7026 0.4595
vn -0.3538 0.0265 0.9349
vn -0.9492 0.1485 0.2776
vn -0.5015 -0.8101 0.3036
vn -0.9282 0.1349 -0.3467
vn -0.9547 -0.1807 0.2363
vn -0.7614 0.1276 0.6356
vn -0.6027 0.7976 0.0221
vn -0.6894 -0.3873 -0.6122
vn -0.7999 0.1118 -0.5896
vn -0.5983 -0.0090 -0.8012
vn 0.5328 0.7760 0.3375
vn -0.0393 0.5524 0.8327
vn 0.3244 0.2059 0.9232
vn 0.5153 0.4847 0.7068
vn 0.1592 -0.0426 0.9863
vn 0.5890 -0.4789 0.6510
vn -0.2547 -0.4936 -0.8315
vn -0.0473 -0.1343 -0.9898
vn 0.4736 0.0040 -0.8807
vn 0.4926 -0.5263 -0.6930
vn -0.6998 -0.6687 0.2512
vn -0.1470 -0.5192 0.8419
vn -0.5652 0.5603 0.6055
vn -0.8143 0.3862 0.4332
vn -0.7925 0.4793 0.3770
vn -0.9441 0.2051 -0.2580
vn -0.5870 -0.5299 0.6121
vn -0.7868 -0.5124 -0.3442
vn -0.2056 -0.7472 -0.6320
vn -0.2443 -0.9631 0.1126
vn 0.1053 0.9803 0.1670
vn -0.0759 0.7698 0.6337
vn 0.4762 0.5460 0.6893
vn 0.9576 -0.0670 -0.2801
vn 0.3716 0.0845 -0.9245
vn 0.3474 0.8599 -0.3741
vn 0.6687 -0.7435 -0.0001
vn 0.3588 -0.6316 -0.6873
vn 0.8521 0.4258 -0.3042
vn -0.6320 0.7750 0.0053
vn -0.6088 0.4435 -0.6578
vn -0.6636 -0.2496 -0.7052
vn -0.9608 0.1694 0.2193
vn -0.2536 0.9581 -0.1329
vn -0.2867 0.9580 0.0035
vn -0.2427 0.9622 0.1237
vn 0.0790 0.9969 -0.0054
vn -0.1289 0.0680 0.9893
vn -0.2422 0.2049 0.9483
vn -0.9045 0.3646 0.2212
vn -0.8529 -0.5218 0.0164
vn 0.7109 -0.6919 0.1260
vn 0.3296 -0.1458 -0.9328
vn 0.6481 0.3554 -0.6735
vn -0.2523 0.0769 -0.9646
vn -0.6793 0.0206 -0.7336
vn -0.3406 0.7244 -0.5993
vn 0.6348 0.3824 -0.6714
vn 0.9747 0.2153 -0.0604
vn 0.4596 -0.8313 -0.3125
vn -0.6977 0.1336 -0.7038
vn -0.9710 -0.1925 -0.1417
vn -0.9895 0.1439 -0.0114
vn -0.5280 0.3079 -0.7915
vn 0.5640 -0.7608 -0.3212
vn 0.6491 -0.2044 -0.7327
vn 0.9117 -0.3989 -0.0983
vn -0.9443 0.2604 0.2011
vn -0.5342 -0.8243 0.1874
vn -0.0991 -0.0586 0.9934
vn -0.5022 -0.5524 -0.6653
vn -0.6686 0.0214 -0.7434
vn -0.4503 -0.0966 -0.8876
vn 0.8481 0.2924 0.4417
vn 0.5097 0.4703 0.7204
vn 0.3592 -0.3763 0.8540
vn 0.3425 -0.4893 0.8020
vn 0.7001 0.0866 0.7088
vn 0.2143 0.5736 0.7906
vn 0.1515 0.4252 0.8923
vn 0.5632 0.1395 0.8145
vn 0.6245 0.1314 0.7699
vn -0.3633 -0.5023 -0.7847
vn -0.5133 -0.6568 -0.5524
vn -0.7671 -0.1070 -0.6326
vn -0.4966 -0.0332 -0.8673
vn -0.7653 0.5108 -0.3918
vn -0.3427 0.5020 -0.7940
vn -0.7142 -0.3618 -0.5992
vn 0.2246 -0.3394 -0.9134
vn 0.6453 0.0308 -0.7633
vn 0.8054 -0.3435 -0.4830
vn 0.7373 -0.6272 -0.2509
vn -0.2818 -0.8410 0.4618
vn -0.3866 0.4021 0.8300
vn -0.9925 -0.0539 0.1100
vn 0.5593 -0.7676 0.3129
vn 0.8410 -0.5329 -0.0935
vn 0.8500 -0.2854 0.4429
vn -0.2541 -0.7893 0.5590
vn 0.2208 0.1931 0.9560
vn -0.3590 0.5008 0.7876
vn -0.4094 -0.7078 -0.5757
vn 0.1895 -0.8628 -0.4688
vn -0.2219 -0.9729 -0.0645
vn 0.2696 0.4104 0.8711
vn 0.1292 -0.5798 0.8044
vn 0.7132 -0.3312 0.6178
vn 0.3901 0.7744 -0.4982
vn 0.6338 0.7604 0.1419
vn 0.8089 -0.3420 -0.4783
vn 0.6158 0.5103 0.6003
vn 0.7890 0.6142 -0.0133
vn 0.1458 0.9532 0.2647
vn 0.6238 -0.7289 0.2819
vn 0.8346 -0.2691 0.4806
vn 0.4568 -0.5412 0.7060
vn 0.6786 0.6949 -0.2381
vn 0.5541 -0.4828 -0.6782
vn 0.2835 0.7422 -0.6072
vn -0.4322 0.8643 0.2572
vn -0.8526 0.2722 0.4461
vn -0.5028 0.1655 0.8484
vn -0.1765 0.5570 0.8115
vn 0.8870 -0.2041 -0.4141
vn 0.9729 0.2284 0.0352
vn 0.8923 0.0496 0.4488
vn 0.8219 -0.4396 0.3623
vn -0.7787 -0.2535 -0.5739
vn -0.5597 -0.7113 0.4253
vn -0.8923 -0.0353 0.4500
vn -0.9303 0.0729 -0.3595
vn 0.1424 -0.6577 -0.7397
vn -0.1567 -0.8200 -0.5506
vn -0.6389 -0.4335 -0.6355
vn -0.0540 0.0011 -0.9985
vn 0.6272 -0.7620 -0.1609
vn 0.5136 -0.4746 -0.7149
vn 0.9020 -0.0564 -0.4280
vn -0.5062 0.5381 -0.6739
vn -0.5620 -0.3279 -0.7594
vn -0.6630 -0.1249 -0.7381
vn -0.9871 0.1493 -0.0580
vn -0.9198 0.2246 0.3218
vn -0.6320 0.7749 -0.0094
vn 0.3411 0.6358 -0.6924
vn 0.1286 -0.4529 -0.8823
vn 0.0636 0.6614 -0.7473
vn 0.8351 0.3525 0.4222
vn 0.5895 0.1769 0.7881
vn 0.5069 -0.4277 0.7484
vn -0.4769 0.6636 -0.5764
vn -0.3828 -0.3499 -0.8550
vn -0.9251 -0.1542 -0.3471
vn 0.9587 -0.2789 -0.0564
vn 0.2010 0.3435 -0.9174
vn 0.5644 0.7943 -0.2248
g Ico_Sphere.001_Ico_Sphere.001_Material
usemtl Material
s 1
f 1//1 3//2 2//3
f 4//4 6//5 5//6
f 7//7 9//8 8//9
f 10//10 12//11 11//12
f 13//13 15//14 14//15
f 16//16 18//17 17//18
f 19//19 21//20 20//21
f 22//22 24//23 23//24
f 25//25 27//26 26//27
f 28//28 30//29 29//30
f 31//31 12//32 10//33
f 32//34 1//35 33//36
f 21//37 35//38 34//39
f 36//40 25//41 37//42
f 17//43 38//44 23//45
f 39//46 41//47 40//48
f 36//49 37//50 42//51
f 43//52 26//53 27//54
f 44//55 10//56 3//57
f 43//58 39//59 45//60
f 46//61 48//62 47//63
f 35//64 21//65 19//66
f 48//67 49//68 47//69
f 4//70 50//71 6//72
f 5//73 51//74 4//75
f 29//76 53//77 52//78
f 54//79 22//80 52//81
f 54//82 12//83 31//84
f 44//85 3//86 32//87
f 55//88 11//89 56//90
f 29//91 30//92 53//93
f 56//94 51//95 55//96
f 7//97 29//98 38//99
f 14//100 15//101 57//102
f 45//103 13//104 14//105
f 58//106 39//107 43//108
f 1//109 59//110 33//111
f 60//112 61//113 13//114
f 27//115 25//116 34//117 62//118
f 56//119 63//120 51//121
f 15//122 64//123 49//124
f 65//125 12//126 53//127
f 31//128 44//129 54//130
f 57//131 42//132 37//133
f 1//134 2//135 66//136
f 67//137 69//138 68//139
f 40//140 71//141 70//142
f 66//143 71//144 59//145
f 53//146 30//147 20//148 65//149
f 46//150 47//151 71//152
f 17//153 23//154 72//155
f 73//156 56//157 65//158
f 57//159 74//160 42//161
f 7//162 38//163 9//164
f 50//165 49//166 6//167
f 47//168 64//169 71//170
f 41//171 69//172 67//173 8//174 9//175 18//176
f 13//177 45//178 39//179 60//180
f 66//181 59//182 1//183
f 74//184 49//185 50//186
f 20//187 30//188 28//189
f 16//190 17//191 33//192 59//193 71//194 40//195
f 19//196 76//197 75//198 34//199 35//200
f 26//201 43//202 45//203 14//204
f 11//205 12//206 65//207 56//208
f 29//209 7//210 28//211
f 62//212 34//213 75//214
f 21//215 73//216 65//217 20//218
f 22//219 23//220 52//221
f 24//222 72//223 23//224
f 49//225 57//226 15//227
f 74//228 57//229 49//230
f 77//231 67//232 68//233
f 41//234 16//235 40//236
f 56//237 73//238 63//239
f 44//240 32//241 24//242
f 72//243 24//244 32//245
f 37//246 14//247 57//248
f 1//249 32//250 3//251
f 50//252 42//253 74//254
f 78//255 19//256 20//257 28//258
f 75//259 76//260 68//261
f 44//262 31//263 10//264
f 55//265 51//266 5//267
f 58//268 69//269 41//270 39//271
f 79//272 42//273 73//274 21//275
f 21//276 34//277 79//278
f 25//279 26//280 37//281
f 22//282 54//283 44//284
f 17//285 9//286 38//287
f 64//288 61//289 71//290
f 28//291 80//292 77//293 78//294
f 38//295 29//296 52//297 23//298
f 4//299 63//300 73//301 42//302
f 61//303 60//304 70//305
f 8//306 80//307 7//308
f 70//309 71//310 61//311
f 76//312 19//313 78//314 77//315
f 15//316 61//317 64//318
f 79//319 36//320 42//321
f 58//322 68//323 69//324
f 46//325 2//326 5//327 48//328
f 3//329 10//330 11//331 55//332 2//333
f 58//334 62//335 75//336 68//337
f 80//338 8//339 77//340
f 39//341 40//342 70//343 60//344
f 50//345 4//346 42//347
f 49//348 64//349 47//350
f 4//351 51//352 63//353
f 26//354 14//355 37//356
f 5//357 6//358 48//359
f 72//360 32//361 33//362
f 44//363 24//364 22//365
f 49//366 48//367 6//368
f 17//369 18//370 9//371
f 52//372 53//373 12//374 54//375
f 71//376 66//377 2//378 46//379
f 25//380 36//381 79//382 34//383
f 43//384 27//385 62//386 58//387
f 15//388 13//389 61//390
f 77//391 68//392 76//393
f 80//394 28//395 7//396
f 16//397 41//398 18//399
f 2//400 55//401 5//402
f 8//403 67//404 77//405
f 33//406 17//407 72//408
