{
    "accessors" : [
        {
            "bufferView" : 0,
            "componentType" : 5126,
            "count" : 594,
            "max" : [
                1.5000042915344238,
                2.4747021198272705,
                4.804219722747803
            ],
            "min" : [
                -1.3289636373519897,
                -3.0551178455352783,
                -3.9087984561920166
            ],
            "type" : "VEC3"
        },
        {
            "bufferView" : 1,
            "componentType" : 5126,
            "count" : 594,
            "type" : "VEC3"
        },
        {
            "bufferView" : 2,
            "componentType" : 5123,
            "count" : 594,
            "type" : "SCALAR"
        }
    ],
    "asset" : {
        "generator" : "Khronos Blender glTF 2.0 I/O",
        "version" : "2.0"
    },
    "bufferViews" : [
        {
            "buffer" : 0,
            "byteLength" : 7128,
            "byteOffset" : 0
        },
        {
            "buffer" : 0,
            "byteLength" : 7128,
            "byteOffset" : 7128
        },
        {
            "buffer" : 0,
            "byteLength" : 1188,
            "byteOffset" : 14256
        }
    ],
    "buffers" : [
        {
            "byteLength" : 15444,
            "uri" : "data:application/octet-stream;base64,"
        }
    ],
    "extensions" : {
        "KHR_lights_punctual" : {
            "lights" : [
                {
                    "color" : [
                        1,
                        1,
                        1
                    ],
                    "intensity" : 9.819999694824219,
                    "name" : "Light",
                    "spot" : {
                        "innerConeAngle" : 0.5201879286051643,
                        "outerConeAngle" : 0.6119858026504517
                    },
                    "type" : "spot"
                },
                {
                    "color" : [
                        1,
                        0.710028886795044,
                        0.38774368166923523
                    ],
                    "intensity" : 8.489999771118164,
                    "name" : "Light",
                    "type" : "directional"
                },
                {
                    "color" : [
                        0.4506383240222931,
                        0.8874459266662598,
                        1
                    ],
                    "intensity" : 10,
                    "name" : "Sun",
                    "type" : "directional"
                }
            ]
        }
    },
    "extensionsRequired" : [
        "KHR_lights_punctual"
    ],
    "extensionsUsed" : [
        "KHR_lights_punctual"
    ],
    "materials" : [
        {
            "name" : "None.001",
            "pbrMetallicRoughness" : {
                "baseColorFactor" : [
                    0.6234899163246155,
                    0.026225119829177856,
                    0.026225119829177856,
                    1
                ],
                "metallicFactor" : 0.8047618865966797,
                "roughnessFactor" : 0.20000004768371582
            }
        }
    ],
    "meshes" : [
        {
            "name" : "rubedo",
            "primitives" : [
                {
                    "attributes" : {
                        "NORMAL" : 1,
                        "POSITION" : 0
                    },
                    "indices" : 2,
                    "material" : 0
                }
            ]
        }
    ],
    "nodes" : [
        {
            "mesh" : 0,
            "name" : "rubedo",
            "rotation" : [
                -0.3607524037361145,
                -0.7218287587165833,
                0.14512646198272705,
                0.5725027322769165
            ],
            "scale" : [
                0.6475151181221008,
                0.6475152969360352,
                0.6475154161453247
            ],
            "translation" : [
                0.5027475953102112,
                1.9479542970657349,
                -0.36127328872680664
            ]
        },
        {
            "extensions" : {
                "KHR_lights_punctual" : {
                    "light" : 1
                }
            },
            "name" : "Light_Orientation",
            "rotation" : [
                -0.7071067690849304,
                0,
                0,
                0.7071067690849304
            ]
        },
        {
            "children" : [
                1
            ],
            "extensions" : {},
            "name" : "Light",
            "rotation" : [
                0.11578443646430969,
                0.6605381965637207,
                0.27670687437057495,
                0.6882707476615906
            ],
            "translation" : [
                0.03570199012756348,
                5.903861999511719,
                3.584094524383545
            ]
        },
        {
            "extensions" : {
                "KHR_lights_punctual" : {
                    "light" : 2
                }
            },
            "name" : "Sun_Orientation",
            "rotation" : [
                -0.7071067690849304,
                0,
                0,
                0.7071067690849304
            ]
        },
        {
            "children" : [
                3
            ],
            "extensions" : {},
            "name" : "Sun",
            "rotation" : [
                -0.1769239753484726,
                -0.029703961685299873,
                -0.9779468178749084,
                0.1069369688630104
            ],
            "translation" : [
                2.648063898086548,
                -3.820796489715576,
                -3.77435564994812
            ]
        }
    ],
    "scene" : 0,
    "scenes" : [
        {
            "name" : "Scene",
            "nodes" : [
                0,
                2,
                4
            ]
        }
    ]
}
