{
    "accessors" : [
        {
            "bufferView" : 0,
            "componentType" : 5126,
            "count" : 594,
            "max" : [
                1.5000042915344238,
                3.9087984561920166,
                2.4747021198272705
            ],
            "min" : [
                -1.3289636373519897,
                -4.804219722747803,
                -3.0551178455352783
            ],
            "type" : "VEC3"
        },
        {
            "bufferView" : 1,
            "componentType" : 5126,
            "count" : 594,
            "type" : "VEC3"
        },
        {
            "bufferView" : 2,
            "componentType" : 5123,
            "count" : 594,
            "type" : "SCALAR"
        }
    ],
    "asset" : {
        "generator" : "Khronos Blender glTF 2.0 I/O",
        "version" : "2.0"
    },
    "bufferViews" : [
        {
            "buffer" : 0,
            "byteLength" : 7128,
            "byteOffset" : 0
        },
        {
            "buffer" : 0,
            "byteLength" : 7128,
            "byteOffset" : 7128
        },
        {
            "buffer" : 0,
            "byteLength" : 1188,
            "byteOffset" : 14256
        }
    ],
    "buffers" : [
        {
            "byteLength" : 15444,
            "uri" : "data:application/octet-stream;base64,"
        }
    ],
    "extensions" : {},
    "materials" : [
        {
            "name" : "None.001",
            "pbrMetallicRoughness" : {
                "baseColorFactor" : [
                    0.6234899163246155,
                    0.026225119829177856,
                    0.026225119829177856,
                    1
                ],
                "metallicFactor" : 0.8047618865966797,
                "roughnessFactor" : 0.20000004768371582
            }
        }
    ],
    "meshes" : [
        {
            "name" : "Ico_Sphere.000",
            "primitives" : [
                {
                    "attributes" : {
                        "NORMAL" : 1,
                        "POSITION" : 0
                    },
                    "indices" : 2,
                    "material" : 0
                }
            ]
        }
    ],
    "nodes" : [
        {
            "mesh" : 0,
            "name" : "Ico_Sphere.000",
            "rotation" : [
                0.918451726436615,
                0.05237710475921631,
                0.3697632849216461,
                0.1303011029958725
            ],
            "scale" : [
                0.6475149989128113,
                0.647515058517456,
                0.6475149989128113
            ],
            "translation" : [
                -0.039487481117248535,
                1.9479540586471558,
                -0.36127352714538574
            ]
        }
    ],
    "scene" : 0,
    "scenes" : [
        {
            "name" : "Scene",
            "nodes" : [
                0
            ]
        }
    ]
}
