{
    "accessors" : [
        {
            "bufferView" : 0,
            "componentType" : 5126,
            "count" : 1242,
            "max" : [
                2.564150810241699,
                2.8204407691955566,
                6.757079601287842
            ],
            "min" : [
                -2.420003890991211,
                -3.6244616508483887,
                -5.616144180297852
            ],
            "type" : "VEC3"
        },
        {
            "bufferView" : 1,
            "componentType" : 5126,
            "count" : 1242,
            "type" : "VEC3"
        },
        {
            "bufferView" : 2,
            "componentType" : 5123,
            "count" : 1242,
            "type" : "SCALAR"
        }
    ],
    "asset" : {
        "generator" : "Khronos Blender glTF 2.0 I/O",
        "version" : "2.0"
    },
    "bufferViews" : [
        {
            "buffer" : 0,
            "byteLength" : 14904,
            "byteOffset" : 0
        },
        {
            "buffer" : 0,
            "byteLength" : 14904,
            "byteOffset" : 14904
        },
        {
            "buffer" : 0,
            "byteLength" : 2484,
            "byteOffset" : 29808
        }
    ],
    "buffers" : [
        {
            "byteLength" : 32292,
            "uri" : "data:application/octet-stream;base64,"
        }
    ],
    "extensions" : {},
    "materials" : [
        {
            "emissiveFactor" : [
                0,
                0,
                0
            ],
            "name" : "None",
            "pbrMetallicRoughness" : {
                "baseColorFactor" : [
                    1,
                    1,
                    1,
                    1
                ],
                "metallicFactor" : 0.4679803252220154,
                "roughnessFactor" : 0.44970887899398804
            }
        }
    ],
    "meshes" : [
        {
            "name" : "Ico_Sphere.000",
            "primitives" : [
                {
                    "attributes" : {
                        "NORMAL" : 1,
                        "POSITION" : 0
                    },
                    "indices" : 2,
                    "material" : 0
                }
            ]
        }
    ],
    "nodes" : [
        {
            "mesh" : 0,
            "name" : "Ico_Sphere.001",
            "rotation" : [
                0.7071065306663513,
                -0.0006170669221319258,
                -0.0006170669221319258,
                0.7071065306663513
            ],
            "scale" : [
                0.3149999976158142,
                0.31477320194244385,
                0.31477320194244385
            ],
            "translation" : [
                -0.03999999910593033,
                0.4699999988079071,
                0.019999999552965164
            ]
        }
    ],
    "scene" : 0,
    "scenes" : [
        {
            "name" : "Scene",
            "nodes" : [
                0
            ]
        }
    ]
}
